<svg width="18" height="18" viewBox="0 0 18 18" fill="none" xmlns="http://www.w3.org/2000/svg">
<g clip-path="url(#clip0_1_185)">
<path d="M14.949 3.01669C13.4359 1.50357 11.3457 0.567566 9.03661 0.567566C4.41905 0.567566 0.675049 4.311 0.675049 8.92913C0.675049 10.4659 1.08961 11.9053 1.81242 13.1428L1.79105 13.1034L0.604736 17.4358L5.03667 16.2731C6.19036 16.9138 7.5668 17.2907 9.03155 17.2907H9.03492C13.6525 17.289 17.3948 13.545 17.3948 8.92744C17.3948 6.6195 16.4599 4.53038 14.9485 3.01725L14.949 3.01669ZM9.03492 15.8783H9.03211C7.72767 15.8783 6.50649 15.5183 5.46417 14.8922L5.49567 14.9096L5.24199 14.7594L2.6123 15.4496L3.31374 12.8852L3.14836 12.6225C2.4818 11.5751 2.0858 10.2988 2.0858 8.92969C2.0858 5.09232 5.19699 1.98113 9.03436 1.98113C12.8717 1.98113 15.9829 5.09232 15.9829 8.92969C15.9829 12.7671 12.8729 15.8783 9.03492 15.8783ZM12.8464 10.6746C12.6377 10.5699 11.6106 10.0654 11.4194 9.99506C11.2275 9.92531 11.088 9.891 10.9485 10.1003C10.8102 10.3089 10.4097 10.7792 10.2876 10.9187C10.1661 11.0588 10.0435 11.0756 9.8348 10.9716C9.18792 10.7094 8.63217 10.3601 8.14899 9.92982L8.15461 9.93488C7.70517 9.51863 7.31986 9.04219 7.0088 8.51682L6.99305 8.48757C6.87155 8.27888 6.98011 8.16582 7.08417 8.06175C7.17811 7.96838 7.29342 7.81763 7.39749 7.69613C7.47961 7.59544 7.54992 7.48013 7.60336 7.35638L7.60674 7.34682C7.63092 7.29788 7.64499 7.24107 7.64499 7.18032C7.64499 7.10663 7.62417 7.038 7.58817 6.9795L7.5893 6.98119C7.53642 6.87657 7.11905 5.84832 6.94524 5.42982C6.77536 5.02257 6.60267 5.07825 6.47499 5.0715C6.35349 5.06588 6.21399 5.06475 6.07449 5.06475C5.8523 5.07038 5.65486 5.1705 5.51874 5.32519L5.51817 5.32632C5.06705 5.75438 4.78692 6.35794 4.78692 7.02675C4.78692 7.04138 4.78692 7.05657 4.78749 7.07119V7.06894C4.86117 7.89413 5.17055 8.63494 5.64642 9.2385L5.63967 9.23007C6.54192 10.5683 7.74455 11.6387 9.15586 12.3598L9.20874 12.384C9.51699 12.5235 9.91186 12.6726 10.3157 12.8003L10.3995 12.8233C10.6482 12.9021 10.9345 12.9476 11.2315 12.9476C11.4019 12.9476 11.5695 12.9324 11.7315 12.9038L11.7141 12.906C12.3154 12.7806 12.8144 12.4178 13.1187 11.9222L13.1237 11.9126C13.2165 11.7068 13.2705 11.4666 13.2705 11.214C13.2705 11.1099 13.2615 11.0081 13.2441 10.9091L13.2458 10.9198C13.194 10.8326 13.0545 10.7809 12.8453 10.6757L12.8464 10.6746Z" fill="black"/>
</g>
<defs>
<clipPath id="clip0_1_185">
<rect width="18" height="18" fill="white"/>
</clipPath>
</defs>
</svg>
